<?xml version="1.0" standalone="no"?>
<!DOCTYPE svg PUBLIC "-//W3C//DTD SVG 20010904//EN"
 "http://www.w3.org/TR/2001/REC-SVG-20010904/DTD/svg10.dtd">
<svg version="1.0" xmlns="http://www.w3.org/2000/svg"
 width="500.000000pt" height="500.000000pt" viewBox="0 0 500.000000 500.000000"
 preserveAspectRatio="xMidYMid meet">

<g transform="translate(0.000000,500.000000) scale(0.100000,-0.100000)"
fill="#782caa" stroke="none">
<path d="M1899 4440 c-215 -24 -403 -117 -533 -262 -30 -34 -57 -60 -58 -58
-71 98 -97 115 -170 108 -86 -9 -270 -152 -363 -283 -107 -151 -170 -345 -143
-442 41 -150 251 -123 272 35 15 114 73 228 159 311 l45 43 16 -30 c41 -78 56
-238 30 -305 -3 -10 -41 -35 -83 -57 -217 -109 -381 -301 -438 -514 l-18 -67
-35 7 c-117 25 -166 -18 -241 -210 -107 -275 -67 -528 114 -722 80 -86 109
-104 167 -104 60 0 98 24 122 76 31 71 19 111 -56 187 -108 109 -143 218 -116
361 19 101 24 104 92 51 76 -59 141 -144 170 -219 32 -83 32 -221 0 -321 -33
-103 -39 -213 -17 -315 26 -122 25 -132 -9 -141 -71 -20 -113 -97 -95 -177 53
-238 235 -473 443 -571 82 -39 221 -74 264 -67 73 11 130 90 116 161 -11 60
-50 94 -133 116 -106 28 -172 63 -238 122 -50 46 -133 157 -133 178 0 14 124
21 188 10 138 -22 262 -115 298 -223 76 -230 220 -411 395 -497 86 -42 181
-71 231 -71 32 0 35 -12 13 -63 -44 -106 16 -207 123 -207 63 0 99 32 156 141
75 143 72 139 97 109 12 -14 41 -63 64 -110 55 -110 80 -132 147 -137 40 -3
61 1 84 15 36 23 64 76 64 122 0 60 -98 243 -176 329 l-36 41 36 76 c48 102
137 192 221 224 66 25 229 39 254 21 21 -14 -9 -68 -82 -147 -45 -48 -79 -74
-145 -106 -97 -49 -122 -79 -122 -146 0 -57 25 -98 75 -122 51 -25 57 -25 133
1 189 64 358 248 448 488 23 60 46 102 78 138 82 92 225 143 364 128 72 -8 72
-6 16 -91 -71 -107 -187 -187 -317 -220 -82 -20 -122 -51 -138 -105 -23 -77
27 -160 105 -175 43 -8 178 26 263 65 194 91 352 276 429 505 44 128 24 199
-64 238 -26 11 -48 21 -48 22 -1 0 6 33 16 71 28 106 27 270 -4 376 -36 129
-37 133 -26 211 19 131 95 251 214 336 l46 33 11 -28 c24 -61 33 -153 21 -215
-15 -80 -43 -131 -106 -198 -72 -75 -86 -98 -86 -143 0 -80 56 -137 135 -137
61 0 91 17 157 89 72 78 120 157 154 256 24 70 28 95 27 195 0 135 -27 241
-96 380 -56 112 -98 137 -199 116 l-37 -8 -11 44 c-37 148 -117 286 -227 388
-73 68 -176 139 -247 170 -39 16 -46 24 -57 62 -6 25 -9 72 -6 113 6 71 42
195 57 195 4 0 33 -27 63 -60 60 -65 110 -156 128 -235 24 -107 31 -128 54
-150 29 -30 95 -50 131 -41 15 4 45 24 66 45 34 34 38 44 38 87 0 75 -35 205
-79 293 -73 144 -208 287 -349 369 -49 28 -64 32 -110 29 -56 -4 -88 -25 -120
-79 -9 -16 -21 -28 -27 -28 -5 1 -26 21 -45 46 -112 146 -325 251 -556 274
-103 11 -109 10 -152 -12 -80 -41 -97 -109 -71 -295 36 -265 164 -454 374
-554 72 -35 125 -37 172 -8 41 26 63 66 63 117 0 58 -34 101 -115 145 -87 47
-125 84 -163 156 -29 55 -57 149 -48 158 8 8 77 -17 149 -55 82 -42 155 -119
196 -205 31 -65 61 -190 61 -254 0 -21 7 -69 15 -107 14 -68 14 -69 -17 -170
-28 -92 -31 -114 -32 -241 -1 -120 2 -150 22 -215 54 -173 184 -330 273 -330
37 0 103 38 122 69 19 33 22 102 6 134 -7 12 -30 41 -51 65 -61 66 -91 142
-96 237 -4 85 7 156 24 162 34 11 188 -132 233 -216 57 -108 81 -262 44 -292
-38 -31 -134 -163 -163 -224 l-31 -65 -44 0 c-36 0 -53 -8 -103 -45 -68 -51
-165 -152 -212 -220 -73 -106 -129 -266 -130 -368 0 -89 57 -151 141 -151 78
0 139 59 139 136 0 79 67 226 129 282 19 17 20 17 39 -21 56 -109 67 -246 31
-357 -24 -72 -13 -66 -154 -81 -132 -14 -275 -85 -375 -185 -57 -57 -59 -58
-97 -49 -74 17 -236 22 -313 9 -253 -42 -448 -211 -551 -475 -12 -33 -28 -66
-35 -74 -20 -22 -176 -27 -251 -7 -131 33 -235 113 -296 225 l-28 50 26 7 c41
10 175 -2 231 -21 28 -9 78 -37 110 -61 70 -52 111 -66 158 -53 75 21 116 87
102 164 -16 86 -207 210 -369 240 -97 18 -219 19 -312 1 l-70 -14 -71 68
c-116 110 -241 162 -446 186 -46 5 -47 6 -66 57 -39 105 -37 212 7 327 34 90
36 91 76 45 53 -61 93 -150 109 -245 13 -75 19 -89 50 -117 48 -44 93 -51 151
-23 60 29 79 66 77 149 -5 186 -114 387 -294 542 -77 66 -102 79 -153 79 -32
0 -37 5 -61 53 -34 67 -102 163 -148 206 -34 33 -36 38 -36 102 0 155 84 307
221 400 32 21 63 39 68 39 17 0 26 -50 26 -145 0 -80 -4 -98 -31 -155 -17 -36
-49 -86 -72 -113 -70 -80 -74 -159 -10 -219 65 -60 140 -46 221 42 95 102 145
210 168 361 16 99 1 241 -38 363 -23 72 -24 86 -14 131 6 28 16 96 21 150 5
55 14 118 21 140 32 112 115 224 208 285 58 36 161 74 173 62 13 -13 -27 -127
-63 -183 -35 -55 -85 -96 -164 -137 -70 -35 -95 -71 -95 -134 0 -84 64 -145
145 -136 128 15 309 165 383 319 55 113 84 237 86 371 1 93 -2 110 -20 134
-48 65 -94 78 -225 64z"/>
<path d="M1990 2540 l0 -580 145 0 145 0 0 230 0 230 233 -2 232 -3 3 -227 2
-228 140 0 140 0 0 580 0 580 -140 0 -140 0 -2 -227 -3 -228 -232 -3 -233 -2
0 230 0 230 -145 0 -145 0 0 -580z"/>
</g>
</svg>
