<svg xmlns="http://www.w3.org/2000/svg" viewBox="0 0 32 32" id="rocket"><g data-name="rocket launcher launch"><rect width="32" height="32" opacity="0"></rect><path d="M27.21 5.66a1 1 0 0 0-.87-.87c-.28 0-6.83-.79-10.54 2.92a13.71 13.71 0 0 0-3.6 5.91L9 13.57h0a1 1 0 0 0-.7 1.71l8.48 8.48a1 1 0 0 0 .71.3 1.09 1.09 0 0 0 .39-.08 1 1 0 0 0 .61-.94l-.05-3.24a13.71 13.71 0 0 0 5.91-3.6 8.21 8.21 0 0 0 .67-.77 1 1 0 1 0-1.58-1.22c-.16.2-.33.39-.51.58A11 11 0 0 1 17.21 18a1 1 0 0 0-.84 1l0 1.59-5-5 1.59 0h0a1 1 0 0 0 1-.84 10.55 10.55 0 0 1 2.6-5 1.05 1.05 0 0 0 .11-.07s.06-.1.1-.15.26-.29.4-.43c2.34-2.34 6.36-2.47 8.07-2.41a15.11 15.11 0 0 1-.63 5A1 1 0 0 0 25.28 13a1 1 0 0 0 1.27-.64A17.59 17.59 0 0 0 27.21 5.66zM8.7 19.92A5.39 5.39 0 0 0 6 21.43c-1.55 1.54-1.86 5-1.89 5.43a1 1 0 0 0 .29.79 1 1 0 0 0 .7.29H5.2c.4 0 3.89-.35 5.44-1.89a5.41 5.41 0 0 0 1.5-2.68 3 3 0 0 0-.7-2.74A3 3 0 0 0 8.7 19.92zm1.48 3a3.39 3.39 0 0 1-1 1.66 6.33 6.33 0 0 1-2.93 1.14 6.33 6.33 0 0 1 1.14-2.93 3.47 3.47 0 0 1 1.66-1 2.69 2.69 0 0 1 .35 0A.81.81 0 0 1 10 22 1.09 1.09 0 0 1 10.18 23z"></path><path d="M19.29,11.29l-2.5,2.5a1,1,0,0,0,0,1.42,1,1,0,0,0,1.42,0l2.5-2.5a1,1,0,0,0-1.42-1.42Z"></path></g></svg>